<?xml version="1.0" standalone="no"?>
<!DOCTYPE svg PUBLIC "-//W3C//DTD SVG 20010904//EN"
 "http://www.w3.org/TR/2001/REC-SVG-20010904/DTD/svg10.dtd">
<svg version="1.0" xmlns="http://www.w3.org/2000/svg"
 width="40pt" height="40pt" viewBox="0 0 512.000000 512.000000"
 preserveAspectRatio="xMidYMid meet">

<g transform="translate(0.000000,512.000000) scale(0.100000,-0.100000)"
fill="#000000" stroke="black">
<path stroke-width="170" d="M630 4853 c-86 -10 -285 -55 -385 -88 -151 -50 -198 -77 -226 -130
-22 -41 -22 -47 -11 -134 16 -119 70 -332 117 -456 136 -366 349 -642 603
-781 37 -21 69 -39 71 -41 2 -1 -23 -60 -56 -130 -131 -276 -239 -633 -290
-953 -27 -177 -25 -498 5 -648 56 -275 161 -480 350 -674 309 -318 775 -494
1456 -549 185 -15 580 -7 761 15 451 55 794 167 1065 347 115 76 296 253 367
359 101 150 161 298 204 500 31 141 33 474 6 650 -51 321 -159 677 -290 953
-33 70 -58 129 -56 130 2 2 34 20 71 41 253 139 469 418 603 780 46 124 99
333 116 454 13 91 12 95 -10 137 -28 53 -75 80 -226 129 -184 61 -327 87 -521
93 -181 6 -276 -3 -408 -37 -254 -67 -486 -235 -634 -460 -34 -50 -62 -96 -64
-100 -2 -4 -49 7 -105 26 -212 71 -411 99 -647 91 -206 -7 -382 -40 -554 -102
-37 -13 -68 -20 -70 -16 -14 40 -138 206 -205 274 -164 167 -361 268 -611 312
-82 14 -329 19 -426 8z m455 -318 c150 -42 272 -114 371 -217 58 -60 144 -177
144 -196 0 -4 -28 -26 -62 -48 -180 -115 -409 -344 -547 -546 l-32 -48 -42 21
c-257 130 -464 434 -567 835 -17 63 -30 121 -30 128 0 14 155 60 280 82 105
18 404 12 485 -11z m3525 -9 c155 -38 190 -49 190 -61 0 -30 -55 -228 -86
-313 -120 -321 -291 -539 -511 -651 l-42 -21 -32 48 c-138 202 -367 431 -546
546 -35 22 -63 44 -63 49 0 18 78 125 139 189 111 118 245 193 411 229 127 28
394 21 540 -15z m-1843 -457 c465 -62 863 -331 1164 -786 308 -466 507 -1201
449 -1653 -56 -431 -309 -731 -763 -907 -437 -169 -1163 -211 -1735 -102 -518
99 -870 319 -1036 647 -161 318 -152 784 25 1329 262 809 730 1309 1355 1448
154 34 389 45 541 24z"/>
<path stroke-width="70" d="M1466 2791 c-124 -82 -69 -274 78 -274 147 0 203 193 80 274 -39 25
-119 25 -158 0z"/>
<path stroke-width="70" d="M3496 2791 c-66 -44 -88 -139 -47 -205 41 -66 134 -89 202 -50 94 55
94 201 1 257 -40 23 -119 22 -156 -2z"/>
<path d="M2421 2385 c-97 -22 -157 -43 -257 -92 -291 -142 -454 -395 -454
-700 0 -161 41 -286 133 -410 97 -130 282 -246 472 -295 126 -32 371 -32 489
0 252 69 446 212 535 393 55 113 71 182 71 307 0 127 -20 221 -70 327 -91 195
-259 341 -492 426 -157 58 -296 72 -427 44z m309 -320 c204 -74 334 -202 370
-366 20 -90 9 -213 -24 -278 -52 -101 -149 -175 -301 -227 -72 -26 -93 -28
-215 -28 -122 0 -143 2 -215 28 -152 52 -249 126 -301 227 -33 65 -44 189 -24
278 40 182 194 319 433 386 74 21 184 13 277 -20z"/>
<path d="M2244 1766 c-90 -40 -116 -166 -48 -237 95 -99 254 -34 254 104 0
105 -109 175 -206 133z"/>
<path d="M2750 1762 c-95 -48 -109 -184 -24 -251 56 -44 146 -36 196 16 113
120 -26 309 -172 235z"/>
</g>
</svg>
