<svg xmlns="http://www.w3.org/2000/svg" viewBox="0 0 32 40" x="0px" y="0px"><path d="M17.886,10.152l4.914-6.552-1.6-1.2-4.2,5.6V2h-2v6L10.8,2.4l-1.6,1.2,4.913,6.551c-3.148,.439-9.114,2.153-9.114,8.84-.001,.182,.016,4.477,4.528,6.89,4.79,2.562,5.428,4.102,5.481,4.253,.066,.49,.486,.865,.991,.865s.925-.375,.991-.865c.053-.151,.691-1.691,5.481-4.253,4.513-2.414,4.53-6.708,4.528-6.882,0-6.69-5.959-8.407-9.114-8.848Zm3.643,13.966c-3.023,1.617-4.653,2.95-5.528,3.945-.507-.577-1.28-1.27-2.418-2.063h2.418v-2h-5.728c-2.109-1.209-2.86-2.923-3.125-4h4.852v-2H7.065c.305-2.336,1.712-4.034,4.2-5.052,2.29-.938,4.63-.948,4.742-.948,.367,0,8.993,.08,8.993,7.002,0,.068-.018,.93-.49,1.998h-5.51v2h4.093c-.422,.4-.935,.782-1.565,1.118Zm.472-7.118h-6v-2h6v2Z"/><text x="0" y="47" fill="#000000" font-size="5px" font-weight="bold" font-family="'Helvetica Neue', Helvetica, Arial-Unicode, Arial, Sans-serif">Created by Ghariza Mahavira</text><text x="0" y="52" fill="#000000" font-size="5px" font-weight="bold" font-family="'Helvetica Neue', Helvetica, Arial-Unicode, Arial, Sans-serif">from the Noun Project</text></svg>